<?xml version="1.0" encoding="UTF-8" standalone="no"?>
<!-- Created with Inkscape (http://www.inkscape.org/) -->

<svg
   width="81.280876mm"
   height="32.836418mm"
   viewBox="0 0 81.280876 32.836418"
   version="1.1"
   id="svg5"
   xml:space="preserve"
   inkscape:export-filename="bitmap.svg"
   inkscape:export-xdpi="96"
   inkscape:export-ydpi="96"
   xmlns:inkscape="http://www.inkscape.org/namespaces/inkscape"
   xmlns:sodipodi="http://sodipodi.sourceforge.net/DTD/sodipodi-0.dtd"
   xmlns="http://www.w3.org/2000/svg"
   xmlns:svg="http://www.w3.org/2000/svg"><sodipodi:namedview
     id="namedview7"
     pagecolor="#505050"
     bordercolor="#eeeeee"
     borderopacity="1"
     inkscape:showpageshadow="0"
     inkscape:pageopacity="0"
     inkscape:pagecheckerboard="0"
     inkscape:deskcolor="#505050"
     inkscape:document-units="mm"
     showgrid="false" /><defs
     id="defs2" /><g
     inkscape:label="Layer 1"
     inkscape:groupmode="layer"
     id="layer1"
     transform="translate(173.56638,-30.173578)"><path
       style="fill:#151b21;fill-opacity:1;stroke-width:0.0423333"
       d="m -173.56638,51.89745 v -11.1125 h 0.97299 0.97298 l 0.0113,-1.153583 0.0113,-1.153584 h 0.74083 0.74084 l 0.0108,4.370917 0.0108,4.370917 h 0.2538 0.2538 v -5.3975 -5.3975 h 1.32721 1.3272 l 0.0297,1.026583 0.0297,1.026583 0.82329,0.825888 0.82329,0.825887 v 4.391696 4.391696 h 0.63482 0.63483 l 0.0108,-5.005917 0.0108,-5.005916 h 0.48684 0.48683 l 0.0116,0.729061 0.0116,0.729063 0.58109,0.01177 0.58108,0.01177 0.0112,1.336141 0.0112,1.336141 0.44778,0.199483 c 0.24628,0.109716 0.94134,0.431602 1.54458,0.715302 l 1.0968,0.515818 v 2.404141 2.404141 h 0.29634 0.29633 v -1.691219 -1.69122 l 0.24342,-0.0127 0.24341,-0.0127 0.0212,-2.221902 0.0212,-2.221903 0.22787,0.613236 c 0.12532,0.337279 0.30295,0.808498 0.39471,1.047152 l 0.16686,0.433917 h 0.35363 0.35363 l 0.2359,0.451713 0.2359,0.451713 v 1.918954 1.918953 h 0.59266 0.59267 v -4.085167 -4.085166 h 0.40198 0.40197 l 0.0108,4.519083 0.0108,4.519083 0.3175,0.05346 c 0.17463,0.0294 0.48895,0.04845 0.6985,0.04233 l 0.381,-0.01113 0.0212,-3.153833 0.0212,-3.153834 0.32809,-0.01236 0.32808,-0.01236 v -0.485052 -0.485053 h 0.508 0.508 v 0.443271 0.443272 l 0.56092,0.01181 0.56092,0.01181 0.0109,2.63612 0.0109,2.636121 0.8146,-0.02223 0.8146,-0.02223 0.0212,-1.259221 0.0212,-1.25922 0.22225,-0.418837 0.22225,-0.418836 v -1.052247 -1.052247 h 0.80433 0.80434 v 0.508 0.508 h 0.35919 0.35919 l 0.0112,-1.23825 0.0112,-1.23825 0.87824,-0.01144 0.87825,-0.01144 0.0108,5.027942 0.0108,5.027941 0.68792,0.01163 0.68791,0.01163 v -5.266031 -5.26603 l 0.31734,-0.397102 0.31733,-0.397101 1.7e-4,-1.227279 1.6e-4,-1.227279 0.86784,0.867058 0.86783,0.867059 v 1.127703 1.127703 l 0.6559,0.647654 0.6559,0.647653 0.0108,3.178031 0.0109,3.178031 h 0.59267 0.59266 l 0.011,-2.12725 0.011,-2.12725 h 1.10028 1.10027 v 3.217333 3.217333 h 0.40217 0.40217 v -2.199013 -2.199014 l 0.20108,-0.0129 0.20108,-0.0129 0.0111,-1.449917 0.0111,-1.449916 h 0.22923 0.22923 l 0.025,-0.22225 c 0.0137,-0.122238 0.0636,-0.688975 0.11074,-1.259417 0.0472,-0.570442 0.15163,-1.624923 0.2321,-2.343293 0.10696,-0.954942 0.1463,-1.490179 0.1463,-1.990659 v -0.684534 l 0.33866,-0.336681 0.33867,-0.33668 v -1.714163 -1.714162 l 0.20884,-0.212998 0.20883,-0.212998 0.0955,-1.364267 c 0.0525,-0.750347 0.10111,-1.358694 0.10792,-1.351881 0.007,0.0068 0.0592,0.628473 0.11636,1.381469 l 0.10397,1.369084 0.21427,0.216962 0.21427,0.216962 v 1.692996 1.692995 l 0.33867,0.33668 0.33866,0.336681 -9.7e-4,0.741826 c -7.6e-4,0.56441 0.036,1.091122 0.15364,2.202327 0.085,0.803275 0.16109,1.484312 0.16899,1.513416 0.0107,0.03958 0.18818,0.05292 0.70404,0.05292 h 0.68967 l 0.77215,0.773001 0.77216,0.773002 v 0.729832 0.729832 h 0.33867 0.33866 v 1.778 1.778 h 0.27517 0.27517 v 2.013863 2.013863 l 0.11641,-0.01361 0.11642,-0.01361 0.0112,1.36525 0.0112,1.36525 h 0.18991 0.18992 v -2.688167 -2.688167 h 0.635 0.635 v -1.0795 -1.0795 h 0.39984 0.39984 l 0.0129,-0.201083 0.0129,-0.201083 0.32809,-0.01236 0.32808,-0.01236 v 3.766224 3.766223 l 0.34239,0.01381 c 0.18831,0.0076 0.35023,0.0059 0.35983,-0.0038 0.01,-0.0097 0.0174,-0.814564 0.0174,-1.788583 l -1e-5,-1.770946 h 0.33867 0.33867 v -2.921 -2.921 h 1.67216 1.67217 v -1.580728 -1.58073 l 1.02285,-0.02794 c 0.56258,-0.01537 1.31505,-0.02794 1.67217,-0.02794 h 0.64931 v 3.513667 3.513666 h 0.61259 0.61258 l 0.38225,0.386642 0.38225,0.386641 v 0.817925 0.817924 l 0.27623,0.01252 0.27622,0.01252 v 1.915583 1.915584 h 0.44363 0.44364 v -3.831167 c 0,-3.802944 6.3e-4,-3.831167 0.0847,-3.831167 0.0787,0 0.0847,-0.02822 0.0847,-0.402166 v -0.402167 h -0.1905 -0.1905 v -0.337078 -0.337078 l 0.39158,-0.01217 0.39159,-0.01217 0.008,-0.550333 c 0.008,-0.493224 0.0207,-0.581001 0.127,-0.845854 l 0.11863,-0.295519 0.0115,0.856436 0.0115,0.856437 h 0.38012 0.38012 v 0.338666 0.338667 h -0.1905 -0.1905 v 0.397229 c 0,0.361627 0.008,0.399214 0.0847,0.419371 0.0837,0.02188 0.0847,0.05774 0.0847,2.989437 v 2.967296 h 0.74084 0.74083 v -2.116666 -2.116667 h 0.63451 0.63451 l 0.0111,-1.661583 0.0111,-1.661584 h 1.397 1.397 l 0.0102,4.2545 0.0102,4.2545 0.35919,0.01222 0.35918,0.01222 0.0116,-0.753051 0.0116,-0.75305 1.11125,-0.01129 1.11125,-0.01129 v -1.671904 -1.671904 l 1.873249,0.01102 c 1.839049,0.01082 1.87336,0.01257 1.879333,0.09569 0.0033,0.04657 0.0081,1.137582 0.01058,2.424478 l 0.0045,2.339812 0.836083,-0.01148 0.836083,-0.01148 0.0127,-4.953 0.0127,-4.953 1.291272,-0.910166 c 0.710201,-0.500592 1.309328,-0.916517 1.331388,-0.924278 0.02519,-0.0089 0.04012,3.712036 0.04012,10.00125 l -3.85e-4,10.015361 h -40.640003 -40.64 z"
       id="path302" /></g></svg>
